/* XPM */
static char *_89214d218b6438e9a3f5869cd789aeehJYDfNlVeDrSRAC9[] = {
/* columns rows colors chars-per-pixel */
"12 12 15 1 ",
"  c #BA9A4C",
". c #A68438",
"X c #99772E",
"o c #8E6F27",
"O c #9E7D34",
"+ c #92732D",
"@ c #836320",
"# c #A8893B",
"$ c #886824",
"% c #B49146",
"& c #8A6B25",
"* c #B9974C",
"= c #76571B",
"- c #AF8B3E",
"; c #BE9F51",
/* pixels */
";O+%OO    *@",
"*X+%O$XXXXX=",
"o$+%O@O+@oo&",
" -X%Oo .X   ",
"#O+%Oo .o###",
"&&$o$& .@+&=",
"****%o .o .=",
"----.o .o .=",
"o$@$@@+&& .=",
";XX####.+*.@",
";O.    %+*.@",
";.$+XXXo@OX="
};
