/* XPM */
static char *b3e10bdf6d854eec837408649f525498lHayoNIOuILbJWp2[] = {
/* columns rows colors chars-per-pixel */
"12 12 25 1 ",
"  c #BA994B",
". c #AA893F",
"X c #8E6F29",
"o c #A17D32",
"O c #856722",
"+ c #BE9B4E",
"@ c #826321",
"# c #B29343",
"$ c #93742D",
"% c #8A6C23",
"& c #9B7B34",
"* c #B59547",
"= c #977A30",
"- c #9B7931",
"; c #B38F44",
": c #7B5E22",
"> c #967229",
", c #A28539",
"< c #735519",
"1 c #333231",
"2 c #635638",
"3 c #55492C",
"4 c #1D1F27",
"5 c #574621",
"6 c #795A1E",
/* pixels */
"&$;.X ++++*@",
"$X;.O-oooo-6",
"OX;.@X=OO%%@",
".$;.%, $,##*",
".$;.@32O,***",
"O@$$5445OX%@",
"....:11:-*-<",
"    X32X&+o<",
">>>>@=.%&+o<",
"%OXX%XXO&+o:",
"=&     ,&+o@",
"==#####o- o:"
};
