/* XPM */
static char *Castle_Player_211757592560[] = {
/* columns rows colors chars-per-pixel */
"44 36 220 2 ",
"   c #1C0500",
".  c #1D0B03",
"X  c #1D0D0A",
"o  c #1E060D",
"O  c #1D1104",
"+  c #1E110B",
"@  c #1C0C15",
"#  c #1D0C1D",
"$  c #1B1618",
"%  c #220600",
"&  c #240C03",
"*  c #2A0D02",
"=  c #230D0B",
"-  c #2A0C0A",
";  c #290400",
":  c #330F05",
">  c #310F0D",
",  c #241305",
"<  c #2B1304",
"1  c #241A04",
"2  c #2B1B04",
"3  c #24120C",
"4  c #2B130B",
"5  c #251A0D",
"6  c #2D1A0B",
"7  c #311304",
"8  c #361801",
"9  c #3A1B03",
"0  c #32150B",
"q  c #39140B",
"w  c #341A0C",
"e  c #3C1D0D",
"r  c #391600",
"t  c #230E11",
"y  c #240F18",
"u  c #360F14",
"i  c #251211",
"p  c #2B1513",
"a  c #241914",
"s  c #2C1A13",
"d  c #22131C",
"f  c #2D1B1B",
"g  c #2A171A",
"h  c #331613",
"j  c #341C13",
"k  c #3A1D13",
"l  c #321D1A",
"z  c #3A1D1A",
"x  c #36131A",
"c  c #2E240B",
"v  c #3D2104",
"b  c #3D230D",
"n  c #352213",
"m  c #3B2315",
"M  c #3E2816",
"N  c #34231B",
"B  c #3C221B",
"V  c #3E2A19",
"C  c #391A20",
"Z  c #3E2C22",
"A  c #3A2220",
"S  c #411D0B",
"D  c #431C1C",
"F  c #441F17",
"G  c #422203",
"H  c #45260C",
"J  c #45290D",
"K  c #4B2C0B",
"L  c #4A280A",
"P  c #54330B",
"I  c #442414",
"U  c #4B2614",
"Y  c #442B13",
"T  c #4A2D15",
"R  c #43241B",
"E  c #4B2719",
"W  c #442A1B",
"Q  c #4C2C1B",
"!  c #512D14",
"~  c #522D1B",
"^  c #5D2D16",
"/  c #4E3316",
"(  c #4C311B",
")  c #45301B",
"_  c #543315",
"`  c #5B3313",
"'  c #53331C",
"]  c #59341C",
"[  c #55391C",
"{  c #5A3A1D",
"}  c #5F3F16",
"|  c #552D0A",
" . c #613514",
".. c #623C1A",
"X. c #66361F",
"o. c #432422",
"O. c #442B23",
"+. c #4B2D23",
"@. c #452C29",
"#. c #4B2D2B",
"$. c #512F25",
"%. c #4D3224",
"&. c #4D332B",
"*. c #543423",
"=. c #5A3622",
"-. c #543A25",
";. c #5C3C24",
":. c #51352B",
">. c #553A2B",
",. c #5B3C2B",
"<. c #5D352B",
"1. c #4E3933",
"2. c #543D32",
"3. c #5A3D32",
"4. c #573E39",
"5. c #613722",
"6. c #623C24",
"7. c #633D2A",
"8. c #683F2B",
"9. c #5D4018",
"0. c #64421D",
"q. c #65441B",
"w. c #5D4123",
"e. c #5C432B",
"r. c #5D4230",
"t. c #634224",
"y. c #6A4624",
"u. c #6D4C24",
"i. c #64442B",
"p. c #6A442D",
"a. c #64492C",
"s. c #6B4C2B",
"d. c #664824",
"f. c #724C25",
"g. c #74462E",
"h. c #734D2C",
"j. c #784C2F",
"k. c #6E502B",
"l. c #745225",
"z. c #75532B",
"x. c #7A552C",
"c. c #7D582B",
"v. c #644331",
"b. c #6A4533",
"n. c #634932",
"m. c #6C4A33",
"M. c #6B493A",
"N. c #724B32",
"B. c #7A4D34",
"V. c #754E3A",
"C. c #6E5232",
"Z. c #6E533B",
"A. c #735233",
"S. c #7B5534",
"D. c #7C5B35",
"F. c #74563A",
"G. c #7B543D",
"H. c #765A3D",
"J. c #7E5C39",
"K. c #6D5346",
"L. c #7D5B42",
"P. c #7D5E49",
"I. c #775543",
"U. c #7D6143",
"Y. c #854D3C",
"T. c #835431",
"R. c #825C35",
"E. c #825A3C",
"W. c #885E36",
"Q. c #856235",
"!. c #886336",
"~. c #84633C",
"^. c #8B683C",
"/. c #906B3D",
"(. c #835B49",
"). c #845746",
"_. c #915D48",
"`. c #885F55",
"'. c #846343",
"]. c #896542",
"[. c #8E6B42",
"{. c #86694C",
"}. c #886A4A",
"|. c #926C44",
" X c #96694C",
".X c #937244",
"XX c #94734B",
"oX c #9D764E",
"OX c #9A794B",
"+X c #9D7746",
"@X c #8D6858",
"#X c #966B57",
"$X c #9A7252",
"%X c #9C7A52",
"&X c #9C7C5A",
"*X c #967155",
"=X c #B17B4D",
"-X c #A87A54",
";X c #B57E53",
":X c #B07E5B",
">X c #AC8A57",
",X c #B28153",
"<X c #B48359",
"1X c #B18D5F",
"2X c #B8845D",
"3X c #BA965A",
"4X c #B49052",
"5X c #AE8864",
"6X c #B58764",
"7X c #B39264",
"8X c #BD9767",
"9X c #C19D5F",
"0X c #C39D67",
"qX c #C59E73",
"wX c #C8A26C",
"eX c #C9A377",
"rX c #DBB576",
"tX c #E3BE78",
"yX c #E7C585",
"uX c #EAC98A",
/* pixels */
"R z f $ $ $ 2.*.^ Y._.I.u - O + @ o = X + $ @ # # @ g   s 5 1 , 5 O s O + a 3 , 4 < m.G.",
"D R s $ $ $ &.;.5._.#X`.0 % . . = t = = + O $ # d y p = , , , 1 , , 5 . 1 O . , , % Z.@X",
"z z 5 O . 1 / q. .W.#X@X0     & %     . O O + . = & & - % % % % . & .   & . . & % - M.`.",
"p 4 n n 6 ( J.!.W.| I ~ ' >.$.U *.-.-.Y n N 1 = = & R Q ;.b.8.p.p.p.t.s.s.n.C.*.T Q v.8.",
". . V ) b i.%XoXoXr * 0 v.).).E.S.S.P.e.V Z 3 3 4 * 3.V.$X6X6X6X2X=X;X2X,X>X6XT.u.y.s.{ ",
"3 . M Y b 6.$XoX&Xr 7 7 m.L.B.Y.J.D.'.i.O.Z ,   % % 6.N. X:X;X=X=X=X=X,X=X,X<Xx...t.6.;.",
"5 . B W F <.(.(.I.0 - ; *.N.8.g._ ] *.O.V V R Y H v ..h.T.T.T.T.T.S.T.S.S.S.E.6.~ ;.+.E ",
"+ . m R D D F D R < & * =.B.T.g.S W B z - * a.{.~.J.D._.g.^  .^ _ ] ] _ ] _ ^ I U $.h % ",
"i = N R o.D C +.o.* * ; 6.E.G.V.W #.#.x - : ;.J.x.z.J.'.I.=.7.6.;.5.5.5.5.5.=.~ E :.0 % ",
"i 3 B o.z z #.o.F * ; : { p.s.v.6 l z z u ; ~ ].D.A.N.I.M.+.*.*.*.=.=.$.] ~ ' ~ E %.h & ",
"i - h j 4 B K.n.n.L.L.L.'.{ Q e , . 4 O.<.E ] Y.L.7.: 7 0 < 6 6 1 5 1 2 w 2 8 n m O.h = ",
"i = < 7 * n Z.e.w.{.*X@X'.i.-.O.. = & W =.T ] ).(.7.% * < w 4 5 2 c 1 2 2 < 6 M V O.j - ",
"g - % * * 9 a.i.-.Z.L.G.G.v.%.Z X X & ( { _ ` S.G.t.< & % &   * . & & * % * 8 w k I h & ",
"o = T ;.y.6.{ *.*.e q : 9 e w N i X & n.U.l.` ` ] ;.t.F.'.&XXX%XOX/././.[.^.E._ Q $.$.O.",
"p - n.S.T.S.] ~ +.h u x q 0 0 j t = < F.~.S.] ] =.;.F.XX7XuXyXuXrX3XwX3XwXwX>X_ K / <.>.",
"=   p.h.N.B.*.$.#.C x x > 0 w 4 . . 4 F.L.F.=.=.;.] z.Q.>XyXtXtXrX4X9X3X3X8X1XP L K ;.-.",
"k e _ X.5.7.*.W Z C p p %.E ' H   X 3 &.>.%.W ' ' _ q.l.+XwXwXwX1X|.^./.+X.X^.q.9.t.w.' ",
"8.b.=.U ~ U w z A f p p &.,.t./ & 3 . 3 = & w *.J _ u.u.c./.Q.^.K 8 G q.l.u.c.c.F.F.i.' ",
"7.b.~ S E R j z g p 4 4 %.r.v.W   t t p = & h ( Y / k.z.D.>X+XOX} v 9 q.D.l.l.u.h.A.6.T ",
"8.8.*.W O.O.B j z k w e #.%.%.V   t t p p = z %.T T [ _ 9.z.u.u.K K P q.c.c.c.z.z.z.0.! ",
"N.b.+.z f l f 4 R E Q E W m B s 3 i = = t . j #.M Y T J b 9.[ _ F.}.].D.x.f.f.f.h.h.S.(.",
"p.N.F % 3 + i 3 0 E ~ E m j N $ X = X 3 i o j #.O.W Q Y / w.i.[ L.}.'.J.x.x.l.z.z.f.~.5X",
"8.M.m = + @ p - q E E E m N N f X + X X X X f O.B I E E Q 8.b.;.'.}.'.~.z.f.f.f.f.f.T.-X",
"q e < = X f 1.#.#.+.E F m 6 a a + a a a f i p p 4 m :.*.Q ;.i.=.;.d.t.s.h.z.h.f.f.f.l.T.",
"4 6 4 % . z 4.&.:.z R B < . . 3 5 p p p f i s h 4 w >.( ' e.;.;.[ [ { t.N.S.h.u.f.f.x.x.",
"j p 3 %   0 :.&.:.m k j & . . & 0 - 4 4 p 4 4 - = w %.( %.e.a.-.;.;.-.i.m.s.s.h.h.f.x.R.",
"i p 4 B I +.,.:.:.l 4 3 j M b / T L Q I 0 k m k w n ) M M V W V Y T I ' v.,.t.i.....h.R.",
"X a B >.*.=.:.%.:.p X . r.P.U.}.XX X$XE.~ ~ Y W M M n n 2 & , 1 < < % e >.-.=.[ { ` z.^.",
"3 3 z %.Q *.$.*.2.N .   e.I.S.D.!.!./.D.K J H I M b e b < % %   < < * k 3.<.3.;._ ! h.^.",
"p p j %.Q ' R W m s 3 . e.F.z.x.x.l.z.0.G v [ [ _ [ ( / T ;.;.;.w < < 0 #.W $.*.;.=.s.J.",
"l z R %.E T * ; & 4 1 , -.C.u.u.d.d.;.] b Y U.U.'.'.~.~.|.8XqXeX~ % 4 h o.z O.,.;.[ t.t.",
"m B m Q E %.< & & < < . w.k.l.z.e.r.e.[ b b Z.U.U.D.R.R.[.8X0XqX;.  % 0 o.h o.3.3.;.;.{ ",
"z n M R B W 4 &   0 < 7 { k.z.k.e.w.w./ J T e.H.H.C.H.D.U.3X8XqXk.v 2 w x l z 2.r.&.,.,.",
"z z n M n B 4 = = W ( ' k.k.A.m.T V ) e.a.e./ K K 9.a.d.k.J.J.~.J.C.F./ & p 4 w z j R %.",
"z j j b j n 4 & % %.e.[ d.k.k.a.Y Y J e.a.a.[ J M 9.C.k.k.D.c.z.z.A.U.( % - < 5 4 4 R %.",
"n m j n j m 3 = & :.e.[ a.k.z.a.Y Y Y a.e.a./ / Y / a.9.k.z.c.z.A.a.A.( - i & w 0 0 I Q "
};
