/* XPM */
static char *_922f7944d8045b8981b98251ea77a68[] = {
/* columns rows colors chars-per-pixel */
"64 64 256 2 ",
"   c black",
".  c #0000A8",
"X  c #00A800",
"o  c #00A8A8",
"O  c #A80000",
"+  c #A800A8",
"@  c #A85400",
"#  c #4C4436",
"$  c gray33",
"%  c #5454FC",
"&  c #524A42",
"*  c #5E5246",
"=  c #736352",
"-  c #685D4C",
";  c #FCFC54",
":  c gray99",
">  c #ECECEC",
",  c gainsboro",
"<  c #D0D0D0",
"1  c #C0C0C0",
"2  c #B4B4B4",
"3  c gray66",
"4  c #989898",
"5  c gray55",
"6  c #7C7C7C",
"7  c gray44",
"8  c #646464",
"9  c gray33",
"0  c #484848",
"q  c gray22",
"w  c #2C2C2C",
"e  c #202020",
"r  c #FC0000",
"t  c #EC0000",
"y  c #E00000",
"u  c #D40000",
"i  c #C80000",
"p  c #BC0000",
"a  c #B00000",
"s  c #A40000",
"d  c #980000",
"f  c #880000",
"g  c #7C0000",
"h  c #700000",
"j  c #640000",
"k  c #580000",
"l  c #4C0000",
"z  c #400000",
"x  c #FCD8D8",
"c  c #FCB8B8",
"v  c #FC9C9C",
"b  c #FC7C7C",
"n  c #FC5C5C",
"m  c #FC4040",
"M  c #FC2020",
"N  c #FC0000",
"B  c #FCA85C",
"V  c #FC9840",
"C  c #FC8820",
"Z  c #FC7800",
"A  c #E46C00",
"S  c #CC6000",
"D  c #B45400",
"F  c #9C4C00",
"G  c #FCFCD8",
"H  c #FCFCB8",
"J  c #FCFC9C",
"K  c #FCFC7C",
"L  c #FCF85C",
"P  c #FCF440",
"I  c #FCF420",
"U  c #FCF400",
"Y  c #E4D800",
"T  c #CCC400",
"R  c #B4AC00",
"E  c #9C9C00",
"W  c #848400",
"Q  c #706C00",
"!  c #585400",
"~  c #404000",
"^  c #849C7B",
"/  c #738C6B",
"(  c #6B7B63",
")  c #637352",
"_  c #5A6B52",
"`  c #525A4A",
"'  c #4A5242",
"]  c #425239",
"[  c #394A39",
"{  c #313931",
"}  c #313929",
"|  c #293129",
" . c #293121",
".. c #212921",
"X. c #182118",
"o. c #181818",
"O. c #00FC00",
"+. c #00EC00",
"@. c #00E000",
"#. c #00D400",
"$. c #04C800",
"%. c #04BC00",
"&. c #04B000",
"*. c #04A400",
"=. c #049800",
"-. c #048800",
";. c #047C00",
":. c #047000",
">. c #046400",
",. c #045800",
"<. c #044C00",
"1. c #044000",
"2. c #C8BFB2",
"3. c #A89A85",
"4. c #9A8C77",
"5. c #7CFCF8",
"6. c #5CFCFC",
"7. c #40FCFC",
"8. c #20FCFC",
"9. c #00FCFC",
"0. c #00E4E4",
"q. c #00CCCC",
"w. c #00B4B4",
"e. c #009C9C",
"r. c #008484",
"t. c #007070",
"y. c #005858",
"u. c #004040",
"i. c #94846B",
"p. c #8C7B67",
"a. c #847B63",
"s. c #81735D",
"d. c #7B6B5A",
"f. c #007CCC",
"g. c #006CB4",
"h. c #005C9C",
"j. c #736B5A",
"k. c #736B52",
"l. c #9C9CFC",
"z. c #7C80FC",
"x. c #5C60FC",
"c. c #4040FC",
"v. c #2024FC",
"b. c #0004FC",
"n. c #0000FC",
"m. c #0000EC",
"M. c #0000E0",
"N. c #0000D4",
"B. c #0000C8",
"V. c #0000BC",
"C. c #0000B0",
"Z. c #0000A4",
"A. c #000098",
"S. c #000088",
"D. c #00007C",
"F. c #000070",
"G. c #000064",
"H. c #000058",
"J. c #00004C",
"K. c #000040",
"L. c #282828",
"P. c #FCE034",
"I. c #FCD424",
"U. c #FCCC18",
"Y. c #FCC008",
"T. c #FCB400",
"R. c #B420FC",
"E. c #A800FC",
"W. c #9800E4",
"Q. c #8000CC",
"!. c #7400B4",
"~. c #60009C",
"^. c #500084",
"/. c #440070",
"(. c #340058",
"). c #280040",
"_. c #FCD8FC",
"`. c #FCB8FC",
"'. c #FC9CFC",
"]. c #FC7CFC",
"[. c #FC5CFC",
"{. c #FC40FC",
"}. c #FC20FC",
"|. c #FC00FC",
" X c #E000E4",
".X c #C800CC",
"XX c #B400B4",
"oX c #9C009C",
"OX c #840084",
"+X c #6C0070",
"@X c #580058",
"#X c #400040",
"$X c #FCE8DC",
"%X c #FCE0D0",
"&X c #FCD8C4",
"*X c #FCD4BC",
"=X c #FCCCB0",
"-X c #FCC4A4",
";X c #FCBC9C",
":X c #FCB890",
">X c #FCB080",
",X c #FCA470",
"<X c #FC9C60",
"1X c #F0945C",
"2X c #E88C58",
"3X c #DC8854",
"4X c #D08050",
"5X c #C87C4C",
"6X c #BC7848",
"7X c #B47044",
"8X c #A86840",
"9X c #A0643C",
"0X c #9C6038",
"qX c #905C34",
"wX c #885830",
"eX c #80502C",
"rX c #744C28",
"tX c #6C4824",
"yX c #5C4020",
"uX c #543C1C",
"iX c #483818",
"pX c #403018",
"aX c #382C14",
"sX c #28200C",
"dX c #600064",
"fX c #006464",
"gX c #006060",
"hX c #00001C",
"jX c #00002C",
"kX c #302410",
"lX c #480048",
"zX c #500050",
"xX c #000034",
"cX c gray11",
"vX c #4C4C4C",
"bX c gray36",
"nX c gray25",
"mX c gray19",
"MX c #343434",
"NX c #2E2B22",
"BX c #B8E8E8",
"VX c #9CDCDC",
"CX c #74C8C8",
"ZX c #48C0C0",
"AX c #20B4B4",
"SX c #20B0B0",
"DX c #00A4A4",
"FX c #009898",
"GX c #008C8C",
"HX c #008484",
"JX c #007C7C",
"KX c #007878",
"LX c #007474",
"PX c #007070",
"IX c #006C6C",
"UX c #980088",
/* pixels */
"cXcXcXcXcXcXcXcXcXcXcXcXcXcXcXcXcXcXcXcXcXcXcXcXcXcXcXcXcXcXcXcXcXcXcXcXcXcXcXcXcXcXcXcXcXcXcXcXcXcXcXcXcXcXcXcXcXcXcXcXcXcXcXcX",
"0 0 0 0 0 0 0 0 0 0 0 0 vX0 vX0 0 0 0 0 0 0 0 vX0 0 0 0 0 0 0 0 0 0 vX0 0 0 0 0 0 0 0 0 0 0 0 0 0 vX0 vX0 0 0 0 0 0 0 0 vX0 0 0 ",
"0 0 0 0 vX0 0 0 0 0 0 0 0 vX0 vX0 0 0 0 0 0 0 0 vX0 0 0 0 0 0 0 0 0 0 vX0 0 0 0 0 vX0 0 0 0 0 0 0 0 vX0 vX0 0 0 0 0 0 0 0 vX0 0 ",
"0 0 0 vX0 vX0 vX0 0 0 vX0 0 vX0 0 0 0 0 vX0 0 0 0 vX0 0 0 0 0 vX0 0 0 0 vX0 0 0 vX0 vX0 vX0 0 0 vX0 0 vX0 0 0 0 0 vX0 0 0 0 vX0 ",
"0 0 0 0 0 0 vX0 vX0 vX0 0 0 0 0 0 0 0 0 vXvX0 0 vX0 0 0 0 0 0 vXvX0 0 vX0 0 0 0 0 0 0 vX0 vX0 vX0 0 0 0 0 0 0 0 0 vXvX0 0 vX0 0 ",
"q 0 vX0 0 0 q q q q q q q q q q q q q q q q q q q q q q q q q q q q q q q q q q q q q q q q q q q q q q q q q q q q vX0 0 0 vXq ",
"8 0 0 vX0 0 q e w w e w e cXe cXo.o.o.o.o.cXo.o.o.cXo.o.o.o.e q bX3 1 1 1 < 1 3 $ q mXcXo.o.cXmX5 3 3 2 2 3 3 3 2 8 0 0 0 vXvXq ",
"8 0 vX0 0 0 q w vXnXq nXq nXMXmXMXq MXmXmXMXMXmXmXmXmXnXvX6 2 1 < , , , > , < < 1 2 5 vXq mXmXnX5 2 1 < < < < < < 8 vX0 0 0 0 q ",
"8 vX0 0 0 vXq e vX0 q q nXnXMXmXMXnXnXq q q MXmXmXq $ 3 1 < < , , , , , < 2 bX0 vXvX$ 4 6 q mXmX8 3 1 < < < < 1 1 8 0 0 0 0 0 q ",
"8 0 vX0 0 0 q e q q q nXnXq q mXMXq q q MXq q MXnX8 3 < , > , , , , < 1 8 nXw w mXq nX5 1 $ MXmX0 5 3 3 3 4 4 5 4 8 0 0 0 0 0 q ",
"8 vX0 0 0 0 q cXq q q q q q MXq q q nXnXq q nXbX4 < , > , > > > > 1 bX0 MXmXw w w mXq 8 1 1 bXq 0 7 5 5 4 3 3 4 4 8 0 0 0 0 0 q ",
"8 0 0 0 0 0 q w 0 nXq nXnXnXq q q nXnXnXq q 8 2 , , > > > > > > 1 8 MXmXw mXw w w w MX$ 3 , 2 vX$ 6 4 4 2 2 3 3 4 8 vX0 vX0 0 q ",
"8 vX0 0 0 0 q e q q q MXq nXnXq q nXnX0 q $ 2 , , , > > > > > 1 8 q mXmXmXmXmXmXmXw mXnX7 < 1 vX$ 6 5 4 4 4 4 5 6 8 0 vX0 vX0 q ",
"8 0 vX0 0 0 q e q q mXmXMXMXnX0 nXnXnXnX$ 2 , , > , , , > , 2 $ q mXw mXmXmXw w q nXvXbX7 < 1 $ bX4 4 3 3 4 4 5 5 8 0 0 vX0 0 q ",
"8 0 0 0 vXvXq e nXq mXmXMXmXMXnXq q MX0 4 < , , > , , , < 5 0 MXmXMXmXmXw mXmX0 5 2 < < < , < $ 0 5 3 3 3 3 3 4 3 8 vXvX0 0 0 q ",
"8 0 0 vX0 0 q e q q MXq q MXMXMXw mXq bX1 , , , > , , < 7 nXmXmXmXmXw w mXq 8 2 < , , , > , < vXq vX7 5 4 3 3 4 4 8 0 0 0 vX0 q ",
"8 0 vX0 vX0 q e q q q MXMXq q q mXq vX4 < > , , > , , < 8 MXw mXmXMXw w nX$ 1 , , , , , > , 1 0 q q nX8 5 5 2 3 4 8 0 0 0 0 vXq ",
"8 0 0 vX0 vXq e q nXq q mXq q q mXnX6 < > > > > > , , , 4 q w mXMXw w nX3 < > > > > > > > > < 0 q q q 0 6 4 2 2 3 8 0 0 0 0 0 q ",
"8 0 0 0 0 0 q e q q q q MXq MXq mX0 1 , > > > , , , , , 1 nXw mXmXw MXnX4 , > > > > > > > > < $ q MXq q vX6 1 < 1 8 0 0 0 0 vXq ",
"8 0 0 0 0 0 q cXq q q q q q q q MX$ < , > , 1 5 < , > , < $ mXmXmXw q nX7 < > > > > > , < < 1 5 nXMXq q q $ 4 1 1 8 0 0 0 vX0 q ",
"8 0 0 0 0 0 q cXmXq q MXMXMXMXq nX6 < , , 4 $ vX3 , > , , 4 nXw MXMXq q bX6 , > > , < 2 8 vXbX3 $ MXmXmXMXq 0 8 2 8 vX0 0 0 vXq ",
"8 0 0 0 0 vXq e mXq MXMXMXMXmXMXnX5 < < 2 $ q nX6 , > , , 1 $ mXMXmXmXmXnXbX1 , < 1 6 0 q MX0 3 8 q mXmXq q q $ 3 8 0 0 0 vX0 q ",
"8 vXvX0 0 0 q w q q q MXMXq q q vX2 < 4 vXq nXq bX< , , , , 2 vXw w MXMXq nX8 4 7 bXnXq mXq $ 5 7 q mXmXq MXq nXvX8 0 0 vX0 0 q ",
"8 vX0 0 0 vXq w nXq q q MXq nXnX$ 2 1 bX0 0 q q $ < , > > , , 5 0 mXMXMXMXq 0 $ 0 0 q MXMXq nX8 $ q MXmXq q q q q 8 0 0 0 vX0 q ",
"8 0 0 0 0 0 q q $ nXnXnX0 nXnX0 bX2 2 7 4 4 $ nXnX5 , > > > > , 3 0 w mXmXq 0 0 q q q nXq mXq 0 q mXmXmXMXq q q MX8 0 0 0 0 0 q ",
"8 0 0 0 vXvXq nXvXnX0 0 $ $ nX0 $ 5 2 5 4 1 2 3 $ vX3 , > > > > < 6 q mXMXq vX0 w w mXq MXq nXnXnXmXmXMXq q mXmXmX8 vX0 0 0 0 q ",
"8 vX0 vX0 0 q nXvXnXnX0 0 0 nX0 $ 7 3 3 2 1 1 1 4 nX$ 1 > > > > , 2 0 mXMXq vXq mXmXmX$ 7 7 5 3 5 q MXMXMXmXmXmXMX8 0 0 0 0 0 q ",
"8 0 vX0 0 0 q q $ nXq q q nX0 8 5 2 1 1 < < 1 4 5 nXq 8 1 > , < 5 $ MXmXq nXmXw w mXnX6 3 1 1 1 3 $ q q mXmXw mXmX8 0 0 0 vX0 q ",
"8 0 0 0 0 0 q q vXnXq q q nXnX0 6 1 < < , < < 2 4 nXmXq 6 < 1 6 nXMXmXmXMXnXw w w mX$ 6 3 2 2 2 2 7 0 nXMXmXmXmXw 8 0 0 vX0 vXq ",
"8 0 0 0 0 vXq 0 0 q MXq q nXnXq 6 2 < < < < < 1 4 q mXMX$ 3 8 q MXq mXw MXnXmXw L.w nX7 4 7 bXbX5 $ q q q mXmXmXmX8 0 vX0 0 0 q ",
"8 0 0 0 0 0 q 0 0 q q nXnXq q q 6 2 2 2 < 3 5 3 4 nXw q q nXq MXq q MXmXmXq mXw L.w vX5 4 bXvXbX4 $ q q q w w w w 8 0 0 0 0 0 q ",
"8 0 0 0 0 0 q q q MXnXnXq q nXnX6 7 bX8 3 8 8 7 8 nXq 0 nXq MXmXmXmXmXmXmXmXq w w mX8 4 2 2 3 6 7 6 nXq nXq mXmXw 8 vX0 0 0 vXq ",
"8 0 0 0 0 0 q mXq MXnX0 nX0 0 $ 8 3 2 2 < 3 2 2 5 0 nXnXq q MXmXmXMXw mXMXnX0 0 0 MXvX7 6 4 2 5 6 5 nXq q nXMXMXmX8 0 0 0 vXvXq ",
"8 vXvX0 0 0 q mXq q MXq nX0 0 0 vX4 < < 1 2 1 3 8 0 nXMXq MXMXmXmXmXmXq bX3 6 5 6 $ $ bXbX7 5 8 $ vXq MXMXnXq q MX8 0 0 0 0 0 q ",
"8 vX0 0 0 vXq mXnXq q nX0 0 0 $ 0 bX3 3 8 7 3 6 $ 8 q mXMXmXmXmXw mXnX8 1 , 1 4 6 4 7 7 7 8 5 4 6 bXq MXMXMXmXMXq 8 0 0 0 0 0 q ",
"8 0 0 0 0 0 q nX0 q nXq nX0 vX0 nX$ 4 3 7 4 2 5 7 6 nXmXmXmXmXmXw q 7 1 , > , 4 4 5 6 7 7 bX6 2 3 6 nXMXmXmXmXMXq 8 0 0 0 0 0 q ",
"8 0 0 0 vX0 q nXvXnXnXnXnXnX0 nXq bX6 7 4 4 3 5 7 2 7 q mXw w mXq 8 < > > > > < 8 $ bX7 8 6 5 2 1 5 nXq q MXmXmXmX8 vX0 0 0 0 q ",
"8 vX0 vX0 0 q 0 bX0 0 0 nX0 0 0 0 vX8 7 7 7 4 7 8 < 2 0 mXw w q 7 1 > > > > > < 8 8 $ vX$ 7 6 3 3 6 nXmXmXmXmXw mX8 0 0 0 0 0 q ",
"8 0 vX0 0 0 q nXbXvX0 nXq q 0 0 0 q vX7 3 2 4 8 bX< < 8 nXmXq 8 1 , > > > > < 3 bX6 6 nXq q 0 8 8 0 MXw MXq mXmXmX8 0 0 0 vX0 q ",
"8 0 0 0 0 0 q q vXnXq q q q nX0 vXq q 0 $ $ 0 0 6 < , < 3 bX5 1 , > > > , < 7 vXvX5 5 8 0 MXMXnX$ bXnXq MXq MXmXmX8 0 0 vX0 vXq ",
"8 0 0 0 0 vXq mXnXq q nXq nXvX0 0 q nXq nXnXq vX7 5 1 1 1 < < < , , , < 2 8 0 bX$ 5 4 4 8 q nXvX6 1 4 8 nXnX0 0 mX8 vXvX0 0 0 q ",
"0 0 0 0 0 0 q e nXq q vX8 6 4 bXmXMXbX8 8 8 0 0 $ bX7 8 6 1 1 1 < < < 1 bXnX7 2 7 7 5 8 vXnXvX7 2 , < 4 5 5 4 2 8 8 0 0 0 0 0 0 ",
"0 0 vX0 0 0 q w nXnXvX6 2 4 5 0 mX0 $ 0 $ vXbX$ 8 7 7 7 bX8 7 2 2 4 2 3 $ $ 2 < 5 7 5 7 6 8 5 1 , , , 3 4 4 < > < 8 vX0 0 0 vX0 ",
"0 0 0 vX0 0 q mXq vX5 4 5 6 5 q q bX6 nX0 $ 7 7 4 5 bX4 4 5 5 3 4 7 8 5 $ 8 1 < 5 7 7 5 5 4 3 , , , , 3 5 4 , > > 8 0 0 0 vXvX0 ",
"0 0 vX0 0 0 q e q 0 6 7 $ bX7 q q vX0 MXMXnX5 3 3 $ $ 3 3 8 5 3 3 4 6 5 bX3 2 4 3 7 bX7 5 3 4 < , < < 2 4 3 , > > 8 vX0 0 0 0 0 ",
"0 vX0 0 0 vXq w q nX0 nXvX8 7 q mX0 q mXw mXbX4 3 vXbX3 3 7 5 4 3 4 5 4 bX7 bX8 2 3 6 7 5 2 1 < 2 6 7 5 4 1 > > > 8 0 0 0 0 0 0 ",
"cX0 vX0 0 0 q q q MXMXnXnXnXq w MXq q MXw mX0 0 $ bX7 3 3 4 2 3 4 6 4 3 4 vX$ 8 < , 3 3 < , > < 5 5 5 6 5 < > > > 8 0 0 0 0 0 cX",
"$ vX0 0 0 0 q q nXq MXnXnXq mXmX0 $ q 0 mXMX0 $ 7 7 4 3 3 3 2 4 4 7 4 3 3 $ $ 7 , > , < > > > 1 5 6 6 7 4 , > > > 8 0 0 0 0 0 cX",
"$ 0 0 0 0 0 q e nXq nXvXbXq q q $ bXnX0 mXq $ 8 7 8 5 5 5 3 4 7 7 $ 7 4 2 8 0 5 , > , > > > , 5 6 6 7 8 4 > > > > 8 vX0 vX0 0 cX",
"$ vX0 0 0 0 q nXq mXq vXbX$ 0 q bXbXnXnXmXq $ 8 7 8 5 5 6 4 7 $ $ q bX5 2 6 0 5 < , 1 < , < < 6 6 6 6 7 1 > > > > 8 0 vX0 vX0 cX",
"$ 0 vX0 0 0 q nXbX0 nXnXq $ bXvX$ vXnXq mXq bXbXbXvX8 5 5 5 bXbX0 MXbX5 2 5 vXvXbX6 5 6 6 6 6 6 5 5 5 4 , > > > , 8 0 0 vX0 0 cX",
"$ 0 0 0 vXvXq 4 4 5 nXq mXq $ bX0 nXnXq w nXbXvXbXvXbX7 5 5 6 4 $ mX0 4 3 3 8 nX$ 8 4 4 5 5 5 6 5 5 5 6 , > > > , 8 vXvX0 0 0 cX",
"$ 0 0 vX0 0 q 2 2 3 $ bXq q 0 vX0 q q mXmX$ $ 0 vXbX7 6 6 3 3 3 8 MXnX4 4 4 8 0 q q 7 5 5 5 4 6 6 7 6 5 , > > > < 8 0 0 0 vX0 cX",
"$ 0 vX0 vX0 q 3 5 3 7 bX7 7 $ nXnXq mXmXmX$ $ nX0 3 2 2 3 4 6 vXq w q 6 5 6 8 nXw w nX7 6 5 4 5 6 8 7 4 , > > > 1 8 0 0 0 0 vXcX",
"$ 0 0 vX0 vXq 3 7 5 bX0 8 8 8 8 vXq w mXmXvX$ 0 0 5 5 5 5 5 0 nXmXw q 0 vX0 0 $ q w q bX7 5 4 4 6 bX7 4 , > > , 2 8 0 0 0 0 0 cX",
"$ 0 0 0 0 0 q 4 8 6 0 nX6 vXvX8 0 q mXw w 0 bX$ 0 bX8 bX7 5 $ $ mXw nXvXnXq bX3 $ nXMXnXvX6 6 5 6 8 6 4 , > > , 4 8 0 0 0 0 vXcX",
"$ 0 0 0 0 0 q nX$ 8 nXq $ 0 q nXmXmXw L.w nX$ 8 bX4 4 5 4 3 bX0 mXw 0 0 nXnX8 1 3 bXq q nX8 7 8 8 8 7 4 , > , , 5 8 0 0 0 vX0 cX",
"$ 0 0 0 0 0 q bX8 8 8 8 8 8 8 8 8 8 8 8 8 8 8 8 8 8 8 8 8 8 8 8 8 8 8 8 8 8 8 8 8 8 8 8 8 8 8 8 8 8 8 8 8 8 8 8 8 8 vX0 0 0 vXcX",
"$ 0 0 0 0 vX0 0 0 vX0 vX0 vX0 0 0 0 0 0 0 0 0 vXvX0 0 vX0 0 0 0 0 0 vXvX0 0 vX0 0 0 0 0 0 0 vX0 vX0 vX0 0 0 0 0 0 0 0 0 0 vX0 cX",
"$ vXvX0 0 0 vX0 vX0 vX0 0 0 vX0 0 vX0 0 0 0 0 vX0 0 0 0 vX0 0 0 0 0 vX0 0 0 0 vX0 0 0 vX0 vX0 vX0 0 0 vX0 0 vX0 0 0 0 0 vX0 0 cX",
"$ vX0 0 0 vX0 vX0 0 0 0 0 0 0 0 vX0 vX0 0 0 0 0 0 0 0 vX0 0 0 0 0 0 0 0 0 0 vX0 0 0 0 0 vX0 0 0 0 0 0 0 0 vX0 vX0 0 0 0 0 vX0 cX",
"$ 0 0 0 0 0 0 0 0 vX0 0 0 0 0 vX0 0 vX0 0 0 vX0 vX0 vX0 0 0 vX0 0 0 0 vX0 0 0 0 0 vX0 0 0 0 vX0 0 0 0 0 vX0 0 vX0 0 0 0 0 0 0 cX",
"q cXcXcXcXcXcXcXcXcXcXcXcXcXcXcXcXcXcXcXcXcXcXcXcXcXcXcXcXcXcXcXcXcXcXcXcXcXcXcXcXcXcXcXcXcXcXcXcXcXcXcXcXcXcXcXcXcXcXcXcXcXcXcX",
"L.L.L.L.L.L.L.L.L.L.L.L.L.L.L.L.L.L.L.L.L.L.L.L.L.L.L.L.L.L.L.L.L.L.L.L.L.L.L.L.L.L.L.L.L.L.L.L.L.L.L.L.L.L.L.L.L.L.L.L.L.L.L.L."
};
