/* XPM */
static char *_ad256cd65f440cbaee0938bda0ba6b48mB1vzT7sFWyyTkK[] = {
/* columns rows colors chars-per-pixel */
"21 21 165 2 ",
"   c #1A1303",
".  c #1E1B0D",
"X  c #231C0C",
"o  c #261E13",
"O  c #291F15",
"+  c #0D2400",
"@  c #172703",
"#  c #142B01",
"$  c #1C2E06",
"%  c #1B3402",
"&  c #1D3D00",
"*  c #1D340C",
"=  c #232F07",
"-  c #27250F",
";  c #252D0A",
":  c #29290F",
">  c #223504",
",  c #223C02",
"<  c #283C07",
"1  c #22350C",
"2  c #233A0A",
"3  c #2B3D0C",
"4  c #272115",
"5  c #2C2315",
"6  c #272914",
"7  c #2B2B14",
"8  c #2E241A",
"9  c #2F281A",
"0  c #33261B",
"q  c #332B1D",
"w  c #233612",
"e  c #223C13",
"r  c #2B3C12",
"t  c #2B351D",
"y  c #273A1B",
"u  c #293C1D",
"i  c #34331C",
"p  c #39321F",
"a  c #3C3D1E",
"s  c #352D23",
"d  c #392E22",
"f  c #3A3424",
"g  c #3C3A23",
"h  c #3E332A",
"j  c #423626",
"k  c #443A2B",
"l  c #413A32",
"z  c #1F4400",
"x  c #244402",
"c  c #2A4405",
"v  c #254B01",
"b  c #2A4B03",
"n  c #26450A",
"m  c #2A440B",
"M  c #2B4B0B",
"N  c #374F05",
"B  c #384F07",
"V  c #314C0B",
"C  c #2C5304",
"Z  c #2A5309",
"A  c #2F5809",
"S  c #345F06",
"D  c #385E07",
"F  c #32550C",
"G  c #345B0B",
"H  c #39590E",
"J  c #274213",
"K  c #2A4314",
"L  c #2E4A12",
"P  c #264118",
"I  c #2B441C",
"U  c #2F491A",
"Y  c #304711",
"T  c #334B14",
"R  c #3A4F17",
"E  c #34461B",
"W  c #364E1B",
"Q  c #394D1C",
"!  c #2E5014",
"~  c #345312",
"^  c #385415",
"/  c #365916",
"(  c #395A13",
")  c #37561A",
"_  c #3A561B",
"`  c #3C5A1C",
"'  c #36600E",
"]  c #3B620D",
"[  c #3C6312",
"{  c #3F6A11",
"}  c #3E621A",
"|  c #2E4121",
" . c #364E23",
".. c #394C22",
"X. c #3C4D29",
"o. c #395123",
"O. c #3D5B21",
"+. c #425D1E",
"@. c #426417",
"#. c #446B13",
"$. c #43651C",
"%. c #446A1C",
"&. c #496E1C",
"*. c #477219",
"=. c #435424",
"-. c #455D23",
";. c #475929",
":. c #495C2A",
">. c #464735",
",. c #4A4333",
"<. c #4C443A",
"1. c #54493D",
"2. c #466124",
"3. c #4A6425",
"4. c #456D20",
"5. c #496F24",
"6. c #47662A",
"7. c #4A632B",
"8. c #4D6E2B",
"9. c #536C2D",
"0. c #4D7320",
"q. c #527525",
"w. c #547C26",
"e. c #5C7C27",
"r. c #51702A",
"t. c #55722E",
"y. c #56762D",
"u. c #537A2B",
"i. c #567E28",
"p. c #557C2B",
"a. c #53792C",
"s. c #587E2B",
"d. c #517430",
"f. c #617E2E",
"g. c #647F32",
"h. c #534D41",
"j. c #575046",
"k. c #5B5147",
"l. c #5F584E",
"z. c #625647",
"x. c #655D52",
"c. c #6F6355",
"v. c #6C6259",
"b. c #5F832B",
"n. c #5A852B",
"m. c #5E852C",
"M. c #598031",
"N. c #5E8532",
"B. c #5F8A31",
"V. c #698634",
"C. c #608A34",
"Z. c #678B34",
"A. c #648A35",
"S. c #628A32",
"D. c #6A8C35",
"F. c #61813E",
"G. c #6B8339",
"H. c #6B8639",
"J. c #698D45",
"K. c #6A8E48",
"L. c #709245",
"P. c #709545",
"I. c #70964B",
"U. c #799C48",
"Y. c #799F48",
/* pixels */
";.T Q 3 r 2 9.3.U L b &.d.x v @.Y , N B 3 ",
":.< R 7.o.< 9.t.2 O.q.A.K.b G L.` , g.G.T ",
"-.m ^ +.m n t.r., ) 0.S.I.v C P.6.% f.H.Y ",
"8.b H y.) M $.$.M / &.i.M.C S p.~ x e.V.Y ",
"F.x #.Y.6.n ] D $.~ F [ *.n.i.C M v b.D.T ",
"J.x #.Y.} z ] ] } Z A #.{ B.C.G Z z m.A.M ",
"u.C ] N.5.Z G [ } A G [ %.a.q.' v Z p.s.M ",
"b %.[ z } 5.( F x / [ x x b b z G 4.C v x ",
"b %.H x $.8.( F & ) } x & M b & G 4.M z M ",
"~ ) ~ F ) O.^ ~ M ~ T n , M M , F 4.! n / ",
"W x b F J e L V 2.L * K V +.W % x ( K J ` ",
" .% b ( e * L ~ 3.T w  .V +.W 2 V ^ I P ) ",
" .% c _ K * T R -.K * E c +.W > T W | u ` ",
" .% c _ K 1 K Y 7.m + 1 , -.Q % > 2 u y ` ",
"o.% m _ K 1 T Y -.m # 1 & _ W 2 > = t y ` ",
"X.$ r =.r 1 E E ;.r @ w < =...1 ; ; t t =.",
"6 7 7 : g g i i i 7 . >.>.- 7 7 7 - 5 7 a ",
"4 q 5 X j k d d q O . <.1.8 0 5 5 4 4 7 p ",
"o f 9   j ,.q 0 9 o 4 <.k.8 0 5 O 4 5 4 q ",
"9 h.k X 1.z.q 5 9 9 s j.x.4 0 5 d h h 0 5 ",
"s x.<.X z.c.d 4 9 d l l.v.4 0 8 h <.,.f 9 "
};
