/* XPM */
static char *_b502feccb224cb2a5e471cf60307731dMSOhNfFLMiKcPWR[] = {
/* columns rows colors chars-per-pixel */
"21 21 185 2 ",
"   c #433A2B",
".  c #443B2A",
"X  c #473B2B",
"o  c #453C2D",
"O  c #463D2E",
"+  c #493D2D",
"@  c #4A3E2E",
"#  c #473D31",
"$  c #483F30",
"%  c #493F33",
"&  c #4B3F33",
"*  c #494031",
"=  c #4B4231",
"-  c #4B4233",
";  c #4C4030",
":  c #4D4131",
">  c #4E4232",
",  c #4F4333",
"<  c #4C4334",
"1  c #4D4337",
"2  c #4D4435",
"3  c #4E4534",
"4  c #4F4635",
"5  c #4E4536",
"6  c #504434",
"7  c #514535",
"8  c #504736",
"9  c #524636",
"0  c #534737",
"q  c #514837",
"w  c #544937",
"e  c #504738",
"r  c #524638",
"t  c #514839",
"y  c #524938",
"u  c #534A39",
"i  c #52493A",
"p  c #534A3B",
"a  c #544838",
"s  c #554939",
"d  c #564B39",
"f  c #54483A",
"g  c #564A3A",
"h  c #574B3B",
"j  c #564E3B",
"k  c #52483C",
"l  c #544B3C",
"z  c #564A3C",
"x  c #564D3C",
"c  c #574E3D",
"v  c #564D3E",
"b  c #574E3F",
"n  c #584C3C",
"m  c #594D3D",
"M  c #584F3E",
"N  c #5A4E3E",
"B  c #5B4F3F",
"V  c #58503D",
"C  c #59503F",
"Z  c #5A523F",
"A  c #584F40",
"S  c #5A4E40",
"D  c #595041",
"F  c #5A5140",
"G  c #5B5340",
"H  c #5B5241",
"J  c #5A5142",
"K  c #5B5243",
"L  c #5C5040",
"P  c #5D5141",
"I  c #5D5240",
"U  c #5C5042",
"Y  c #5D5143",
"T  c #5E5242",
"R  c #5F5343",
"E  c #5D5443",
"W  c #5F5442",
"Q  c #5E5643",
"!  c #5B5145",
"~  c #5C5344",
"^  c #5E5546",
"/  c #5F5647",
"(  c #5F5549",
")  c #605444",
"_  c #615545",
"`  c #615547",
"'  c #625646",
"]  c #635747",
"[  c #605845",
"{  c #615946",
"}  c #615847",
"|  c #625A47",
" . c #645947",
".. c #615849",
"X. c #625948",
"o. c #635B48",
"O. c #635A49",
"+. c #62594A",
"@. c #635A4B",
"#. c #645848",
"$. c #655949",
"%. c #665B49",
"&. c #645B4A",
"*. c #665A4A",
"=. c #675B4B",
"-. c #655C4D",
";. c #665D4C",
":. c #675E4D",
">. c #665D4E",
",. c #675E4F",
"<. c #685C4C",
"1. c #695D4D",
"2. c #685C4E",
"3. c #695D4F",
"4. c #685F4E",
"5. c #6A5E4E",
"6. c #6B5F4F",
"7. c #685F50",
"8. c #69614E",
"9. c #6C614F",
"0. c #696051",
"q. c #6A6150",
"w. c #6B6350",
"e. c #6B6251",
"r. c #6B6253",
"t. c #6C6050",
"y. c #6D6151",
"u. c #6C6052",
"i. c #6E6252",
"p. c #6F6353",
"a. c #6C6451",
"s. c #6D6453",
"d. c #6E6653",
"f. c #6C6354",
"g. c #6E6554",
"h. c #706454",
"j. c #716555",
"k. c #726755",
"l. c #706756",
"z. c #726656",
"x. c #736757",
"c. c #706855",
"v. c #716857",
"b. c #72695A",
"n. c #736A5B",
"m. c #746858",
"M. c #756959",
"N. c #766B59",
"B. c #746B5A",
"V. c #766A5A",
"C. c #776B5B",
"Z. c #756D5A",
"A. c #776C5A",
"S. c #756C5D",
"D. c #776E5D",
"F. c #776E5F",
"G. c #786C5C",
"H. c #796D5D",
"J. c #796E5C",
"K. c #7A6E5E",
"L. c #7B6F5F",
"P. c #7A6E60",
"I. c #7A7162",
"U. c #7C7060",
"Y. c #7D7161",
"T. c #7E7361",
"R. c #7C7362",
"E. c #7E7262",
"W. c #7F7363",
"Q. c #7D7463",
"!. c #7D7465",
"~. c #7E7566",
"^. c #807464",
"/. c #817565",
"(. c #807766",
"). c #827666",
"_. c #837767",
"`. c #807768",
"'. c #857969",
"]. c #867A6A",
"[. c #897D6D",
"{. c #8B8370",
"}. c #8C8070",
"|. c #958979",
" X c #A09484",
/* pixels */
"W.h.] K./.h.[.5.C./.i.L /.K.h.#.s.{.0.s.A.",
"N ] L i.N a 5.N #.5.] L #.N #.L j | | O.C ",
"L h.i.K.h.5.5.5.5.C./.i.#.] i.C.| 5.s.h.O.",
"L a ] h.C.#.] ] #.N #.a 5.i.> L J ;.4 J 0.",
"K.L h.W.C.i.h.C.5.i.h.] K.W.5.#.!.`./ O.b.",
"L N > > 0 N > ] L i.5.5.N a h.h.b l / S   ",
"K.'.5.] K./.5.W./.C.i./.C.] K.}.;.7.!.F.y ",
"0 > 0 0 L L L 0 @ a ] a a N > a l b = y l ",
"i.i.W.h.h.W.'.h.] h.W.h./.C.h.#.`.b.b.f.I.",
"N N 0 > L 0 X > N L L a > L 0 N = O y 4 O ",
"5.5.a L i.] 0 #./.C.] /.] N C.i.e / 7.;.y ",
"a L #.L a ] N ] a ] i.L N #.#.a l 0./ O.7.",
"N #./.C.L C.C.W.N K.'.] K.'.h.C.F.Q.#.g./.",
"0 0 L 0 0 #.N #.N L L a a N L #.E N b J 0 ",
"i.i.5.h./.C.] L C.] W.i.a h.5.i.E E v.0.C ",
"> ] K.|. XW.i.N L #.#.i.h.L N  .O.O.8.J | ",
"4 C.O.W.`.;.F.J i.P.h.C.K. .w h.8.0.C.0.v.",
";.C b y J ;.~ O.a S > @ a 9.#.E 4 = y 4 b ",
"E y e < 4 l J 0.5.5.i.h.h.W.A.L J q b l b ",
"X 4 y b e $ b J ] l L #.L 5.A.C.E 0 l l 4 ",
"4 O ( k < ! # $ $ e L L N N N a J e b J < "
};
