/* XPM */
static char *_50388c3ad5a4fa3e21351f4defaa382FFMSpEDL8CQRTZ9M[] = {
/* columns rows colors chars-per-pixel */
"21 21 158 2 ",
"   c #1B0300",
".  c #1E0C04",
"X  c #1E090B",
"o  c #1F0A11",
"O  c #230400",
"+  c #250C03",
"@  c #2B0C02",
"#  c #210E0A",
"$  c #2B0E0A",
"%  c #300C00",
"&  c #310F0E",
"*  c #251302",
"=  c #2B1303",
"-  c #26120B",
";  c #2D120A",
":  c #2F1C0D",
">  c #331402",
",  c #3A1604",
"<  c #311804",
"1  c #3C1C05",
"2  c #31130A",
"3  c #341B0E",
"4  c #3C1A0B",
"5  c #210E10",
"6  c #2B0E11",
"7  c #261516",
"8  c #2B1411",
"9  c #251218",
"0  c #2F1D19",
"q  c #341413",
"w  c #351B12",
"e  c #3A1D14",
"r  c #341C1B",
"t  c #3E1C1B",
"y  c #3B2106",
"u  c #37200E",
"i  c #352113",
"p  c #3C2314",
"a  c #3C2A16",
"s  c #3C221B",
"d  c #3E2A1C",
"f  c #3D2322",
"g  c #401B00",
"h  c #401F16",
"j  c #452300",
"k  c #43250A",
"l  c #462B0F",
"z  c #5C3D07",
"x  c #54320F",
"c  c #432314",
"v  c #442C14",
"b  c #492B14",
"n  c #442319",
"m  c #442A1C",
"M  c #4A2B1B",
"N  c #502E1C",
"B  c #4C3115",
"V  c #4C301B",
"C  c #523316",
"Z  c #5C3B13",
"A  c #52331C",
"S  c #583718",
"D  c #543C1B",
"F  c #5C3D1B",
"G  c #603E1B",
"H  c #442523",
"J  c #452C22",
"K  c #4A2E23",
"L  c #4D2E2C",
"P  c #522E22",
"I  c #433021",
"U  c #4D3122",
"Y  c #49332C",
"T  c #543423",
"R  c #593722",
"E  c #553C25",
"W  c #5B3D25",
"Q  c #52362A",
"!  c #553B2D",
"~  c #5B3C29",
"^  c #4F3B32",
"/  c #523431",
"(  c #5B3F31",
")  c #5B3C39",
"_  c #62421C",
"`  c #68421E",
"'  c #5F4520",
"]  c #5D432D",
"[  c #5F4433",
"{  c #624322",
"}  c #6A4727",
"|  c #654A24",
" . c #6D4B26",
".. c #63452C",
"X. c #6C4D2D",
"o. c #734D26",
"O. c #714F2B",
"+. c #6D522E",
"@. c #755026",
"#. c #75532F",
"$. c #664735",
"%. c #684235",
"&. c #664B32",
"*. c #6D4D33",
"=. c #62443A",
"-. c #644D3B",
";. c #6C4C3F",
":. c #724C37",
">. c #704D3A",
",. c #6E5332",
"<. c #6D523C",
"1. c #795630",
"2. c #755836",
"3. c #7D5937",
"4. c #73543B",
"5. c #755B3B",
"6. c #7F5E3B",
"7. c #654840",
"8. c #6D5646",
"9. c #765342",
"0. c #7A5543",
"q. c #775C47",
"w. c #7B5C47",
"e. c #785F4B",
"r. c #796042",
"t. c #7D6149",
"y. c #825F3F",
"u. c #856534",
"i. c #896336",
"p. c #906B34",
"a. c #91733D",
"s. c #815B44",
"d. c #825F4C",
"f. c #896744",
"g. c #846846",
"h. c #8B6946",
"j. c #8A6D4B",
"k. c #916F4C",
"l. c #987241",
"z. c #937048",
"x. c #896C52",
"c. c #8E7252",
"v. c #937052",
"b. c #987756",
"n. c #92725B",
"m. c #9E7D5B",
"M. c #9B7367",
"N. c #A07E63",
"B. c #AF8D4E",
"V. c #AD8554",
"C. c #B38E62",
"Z. c #A98472",
"A. c #C09B6F",
"S. c #C39F6D",
"D. c #CEAC6D",
"F. c #D6B37B",
"G. c #D3B694",
"H. c #F1CE98",
/* pixels */
"a * = E 4.4.O + X 5 # - - . $ ; ; @ @ @ 9.",
"i = 3 T 0.>.@ @ ; - - . - + ; @ @ > > > *.",
"+ w ~ Z.P 4 0.4.4.E 3   M d.N.b.m.m.f._ } ",
"8 e T M.n 4 :.X.X.A u = N s.v.k.h.k.y.{ S ",
"- s s n > , *...4 < m e.t.4.R R R ~ R c < ",
"- s s m 1 1 *.T e 3 p q.&.W M T T U K J w ",
"; + i -.w.n.( w + J E <.p = @ @ @ = < s w ",
"; 3 m ] R ~ ! e $ Q ~ <.b k S x C B b v p ",
"@ ;.9.N h $ 2 > @ q.$.R } C.H.F.S.A.z.j { ",
"e ~ %.T e 2 K , % ~ Q A ` l.D.B.p.V.i.Z Z ",
"~ b c e w e =.c O @ 2 b _ u.a.z g @.o.O.G ",
"$.M n 3 p w Y f 6 $ q U b ' | Z _ #.#.X. .",
"7.3 * * v m r 9 o X ; m s I E r.x.5.,.X.g.",
"L + : a a d 0 7 7 8 w w Y ^ ! ] 4.X.X.X.6.",
"q O q Q d 3 *   + = ; O m T ] E F X.O. .1.",
"& t H ) s = v D E m e p b k l l k { { F 3.",
"+ K / / p = 5.g.c...b c k >   @ > V ~ A 4.",
"3 K H w = = +.+.*.b N 4.X.+.c.B + p M ~ $.",
"w J s + @ y +.| ..l ] x.5.c.G.,.+ 3 K [ ~ ",
"w s s + 3 A ,.{ B W R A X.2.j.4.! ; 3 p U ",
"s w r $ m ..+.D k &.W c W +.X.4.8.* = + m "
};
